<?xml version="1.0" standalone="no"?>
<!DOCTYPE svg PUBLIC "-//W3C//DTD SVG 20010904//EN"
 "http://www.w3.org/TR/2001/REC-SVG-20010904/DTD/svg10.dtd">
<svg version="1.0" xmlns="http://www.w3.org/2000/svg"
 width="1200.000000pt" height="1994.000000pt" viewBox="0 0 1200.000000 1994.000000"
 preserveAspectRatio="xMidYMid meet">

<g transform="translate(0.000000,1994.000000) scale(0.100000,-0.100000)"
fill="#000000" stroke="none">
<path d="M1531 19843 c-173 -189 -242 -288 -291 -421 -40 -110 -52 -187 -51
-336 1 -271 85 -506 257 -719 64 -80 82 -129 65 -179 -6 -19 -48 -81 -93 -139
-159 -204 -284 -416 -351 -599 -71 -190 -67 -109 -67 -1535 l0 -1285 -90 0
-90 0 0 50 0 50 -85 0 -85 0 0 -319 0 -319 140 -153 139 -154 1 -1262 0 -1263
-175 0 -175 0 0 45 0 45 -105 0 -105 0 0 -302 0 -303 235 -405 235 -405 0
-1615 c0 -931 -5 -1690 -10 -1792 -16 -277 -57 -449 -142 -593 -82 -139 -108
-193 -142 -296 -83 -248 -86 -297 -86 -1211 l0 -787 -39 -12 c-50 -15 -75 -1
-92 48 -17 54 -27 63 -68 63 -46 0 -118 -42 -199 -115 l-62 -57 0 -1784 0
-1784 6000 0 6000 0 0 1375 0 1375 -55 0 -55 0 0 358 c0 400 -2 416 -66 491
-43 50 -104 87 -185 112 -56 18 -100 19 -590 19 l-529 0 73 88 c278 330 448
722 508 1172 14 109 14 425 -1 560 -37 346 -154 684 -326 940 -311 466 -980
1083 -1674 1547 -227 151 -355 224 -885 503 -404 213 -566 311 -698 423 l-57
49 2 391 3 390 50 12 c235 53 378 238 363 472 -9 135 -97 259 -243 344 -60 35
-145 73 -150 67 -2 -2 22 -23 53 -48 109 -88 166 -205 160 -331 -4 -91 -33
-144 -106 -190 -72 -45 -134 -60 -272 -66 -140 -6 -224 8 -309 51 -200 102
-181 352 41 537 72 59 57 59 -70 -2 -106 -51 -206 -143 -247 -226 -22 -45 -29
-76 -33 -139 -8 -148 33 -260 130 -349 66 -61 137 -98 237 -122 l71 -17 0
-386 0 -386 -38 -36 c-52 -50 -178 -139 -302 -212 -99 -59 -187 -107 -630
-341 -298 -158 -474 -260 -660 -384 -702 -466 -1377 -1089 -1683 -1551 -181
-273 -292 -597 -328 -953 -17 -176 -7 -533 20 -672 44 -232 103 -410 202 -607
91 -182 189 -330 314 -475 l37 -43 -641 0 -641 0 0 751 c0 626 -3 769 -15 858
-30 206 -87 378 -168 513 -94 155 -127 240 -164 418 -15 78 -17 225 -20 1875
l-4 1790 231 399 230 399 0 303 0 304 -105 0 -105 0 0 -45 0 -45 -175 0 -175
0 0 1260 0 1260 140 155 140 156 0 319 0 320 -80 0 -80 0 0 -50 0 -50 -95 0
-95 0 -2 1323 -3 1322 -28 90 c-59 192 -214 470 -380 680 -87 111 -97 129 -97
185 0 49 9 66 93 173 102 129 187 323 218 497 19 108 17 308 -5 405 -22 99
-88 238 -157 330 -47 63 -257 305 -264 305 -2 0 -44 -44 -94 -97z m-341 -4613
l0 -590 -45 0 -45 0 0 590 0 590 45 0 45 0 0 -590z m550 0 l0 -590 -135 0
-135 0 0 590 0 590 135 0 135 0 0 -590z m370 0 l0 -590 -45 0 -45 0 0 590 0
590 45 0 45 0 0 -590z"/>
</g>
</svg>
