<?xml version="1.0" standalone="no"?>
<!DOCTYPE svg PUBLIC "-//W3C//DTD SVG 20010904//EN"
 "http://www.w3.org/TR/2001/REC-SVG-20010904/DTD/svg10.dtd">
<svg version="1.0" xmlns="http://www.w3.org/2000/svg"
 width="500.000000pt" height="500.000000pt" viewBox="0 0 500.000000 500.000000"
 preserveAspectRatio="xMidYMid meet">

<g transform="translate(0.000000,500.000000) scale(0.100000,-0.100000)"
fill="#000000" stroke="none">
<path d="M2994 1821 c-106 -49 -200 -180 -251 -350 -14 -48 -17 -123 -20 -509
l-4 -452 333 2 333 3 3 350 c1 193 -2 400 -7 461 -20 221 -105 391 -240 479
-52 34 -98 39 -147 16z"/>
<path d="M2208 1365 c-44 -30 -89 -92 -120 -166 -22 -52 -23 -68 -26 -371 l-3
-318 220 0 221 0 -1 288 c0 324 -8 373 -69 477 -66 109 -146 142 -222 90z"/>
<path d="M3753 1361 c-52 -37 -99 -109 -123 -189 -18 -58 -20 -94 -20 -363 l0
-299 220 0 220 0 0 268 c0 147 -5 296 -11 332 -15 93 -59 179 -120 234 -64 57
-105 61 -166 17z"/>
</g>
</svg>
